<?xml version="1.0" standalone="no"?>
<!DOCTYPE svg PUBLIC "-//W3C//DTD SVG 20010904//EN"
 "http://www.w3.org/TR/2001/REC-SVG-20010904/DTD/svg10.dtd">
<svg version="1.0" xmlns="http://www.w3.org/2000/svg"
 width="1000.000000pt" height="1000.000000pt" viewBox="0 0 1000.000000 1000.000000"
 preserveAspectRatio="xMidYMid meet">
<metadata>
Created by potrace 1.11, written by Peter Selinger 2001-2013
</metadata>
<g transform="translate(0.000000,1000.000000) scale(0.100000,-0.100000)"
fill="#000000" stroke="none">
<path d="M4758 7865 c-2 -2 -34 -6 -71 -10 -37 -3 -76 -8 -85 -10 -9 -1 -44
-6 -77 -10 -32 -3 -62 -8 -65 -10 -4 -2 -29 -7 -56 -11 -27 -3 -59 -10 -71
-15 -13 -5 -23 -7 -23 -4 0 2 -42 -8 -92 -21 -51 -14 -100 -27 -109 -29 -40
-8 -245 -82 -339 -122 -238 -102 -420 -206 -626 -360 -147 -108 -173 -132
-339 -298 -257 -256 -424 -489 -581 -811 -108 -220 -207 -503 -238 -677 -3
-15 -7 -35 -10 -45 -3 -9 -7 -34 -11 -56 -3 -21 -7 -41 -9 -45 -2 -3 -7 -35
-11 -71 -4 -36 -9 -73 -11 -83 -26 -137 -26 -628 1 -787 2 -14 7 -45 10 -70
23 -193 132 -580 212 -759 62 -139 141 -293 192 -376 31 -49 61 -98 66 -107
107 -180 381 -487 590 -663 180 -150 362 -276 369 -253 2 7 12 42 21 78 42
156 102 293 194 445 142 233 346 432 588 575 l73 42 -83 50 c-163 97 -320 235
-440 384 -48 61 -187 276 -187 291 0 3 -13 33 -29 67 -47 100 -105 286 -116
373 -2 12 -6 34 -9 50 -28 141 -24 408 9 573 15 72 49 198 65 235 4 11 20 52
35 90 41 108 144 290 215 379 275 347 608 551 1027 630 171 33 426 25 611 -19
12 -3 32 -7 43 -10 80 -17 232 -77 339 -133 359 -188 645 -512 795 -902 33
-83 73 -226 80 -282 2 -15 6 -35 9 -45 9 -32 19 -166 19 -253 -1 -90 -10 -238
-17 -249 -2 -3 -7 -28 -10 -56 -24 -177 -138 -453 -265 -640 -133 -195 -346
-390 -547 -502 -46 -26 -83 -47 -81 -48 1 -2 40 -26 87 -54 271 -168 496 -419
636 -709 40 -84 109 -272 120 -326 2 -12 7 -33 11 -48 l8 -28 120 77 c66 43
122 80 125 83 3 3 46 37 95 75 157 122 367 327 480 470 22 27 45 55 50 61 6 6
17 22 25 34 8 12 29 41 46 64 181 243 354 599 447 921 34 119 81 328 92 415 3
25 8 56 10 70 20 118 28 529 12 680 -4 41 -9 93 -11 115 -5 46 -46 277 -51
286 -2 3 -7 21 -10 40 -10 58 -84 307 -105 354 -5 11 -20 51 -35 89 -31 80
-129 283 -181 376 -42 73 -189 293 -237 353 -242 301 -498 531 -805 722 -217
134 -543 280 -762 339 -30 8 -80 22 -110 30 -30 8 -68 18 -85 20 -34 7 -68 13
-105 21 -14 3 -41 8 -60 11 -19 2 -46 7 -60 9 -24 4 -54 8 -160 21 -47 6 -537
14 -542 9z"/>
</g>
</svg>
