<?xml version="1.0" standalone="no"?>
<!DOCTYPE svg PUBLIC "-//W3C//DTD SVG 20010904//EN"
 "http://www.w3.org/TR/2001/REC-SVG-20010904/DTD/svg10.dtd">
<svg version="1.0" xmlns="http://www.w3.org/2000/svg"
 width="1000.000000pt" height="1000.000000pt" viewBox="0 0 1000.000000 1000.000000"
 preserveAspectRatio="xMidYMid meet">
<metadata>
Created by potrace 1.11, written by Peter Selinger 2001-2013
</metadata>
<g transform="translate(0.000000,1000.000000) scale(0.100000,-0.100000)"
fill="#000000" stroke="none">
<path d="M0 5000 l0 -5000 2275 0 2275 0 2 1744 3 1745 21 28 c25 34 56 50
112 59 l42 7 0 -1792 0 -1791 90 0 90 0 0 1788 0 1789 21 19 c15 13 36 19 69
19 33 0 54 -6 69 -19 l21 -19 0 -1789 0 -1788 90 0 90 0 0 1791 0 1792 42 -7
c56 -9 87 -25 112 -59 l21 -28 3 -1745 2 -1744 2275 0 2275 0 0 5000 0 5000
-2275 0 -2275 0 -2 -1749 -3 -1750 -21 -28 c-25 -34 -56 -50 -112 -59 l-42 -7
0 1797 0 1796 -90 0 -90 0 0 -1793 0 -1794 -21 -19 c-29 -26 -109 -26 -138 0
l-21 19 0 1794 0 1793 -90 0 -90 0 0 -1796 0 -1797 -42 7 c-56 9 -87 25 -112
59 l-21 28 -3 1750 -2 1749 -2275 0 -2275 0 0 -5000z m5065 399 c273 -50 418
-342 294 -596 -26 -54 -125 -163 -147 -163 -4 0 -15 20 -26 45 -10 25 -34 58
-53 74 l-36 29 37 33 c99 87 105 231 13 328 -139 146 -377 45 -377 -161 0 -63
28 -125 75 -166 l33 -30 -39 -38 c-21 -20 -47 -55 -57 -77 l-18 -39 -52 47
c-36 32 -63 70 -89 123 -37 74 -38 79 -38 187 0 104 2 114 32 176 41 84 112
155 189 191 97 45 163 55 259 37z m-2665 -104 l0 -95 -68 0 c-85 0 -145 -28
-185 -86 -37 -53 -49 -107 -36 -164 23 -104 96 -160 216 -168 l73 -5 0 -87 c0
-104 2 -103 -125 -90 -105 11 -174 43 -242 111 -194 194 -143 512 101 636 58
30 109 40 199 42 l67 1 0 -95z m352 -172 c3 -228 6 -273 20 -299 33 -60 117
-73 170 -25 l33 29 3 281 3 281 95 0 95 0 -3 -297 -3 -298 -27 -51 c-30 -57
-84 -109 -135 -131 -166 -69 -339 -7 -412 147 -26 55 -26 57 -29 343 l-4 287
95 0 96 0 3 -267z m1738 172 l0 -95 -105 0 -105 0 0 -305 0 -305 -95 0 -95 0
0 305 0 305 -283 0 c-303 0 -307 -1 -307 -50 0 -36 21 -52 115 -84 44 -16 94
-39 111 -52 95 -71 100 -252 10 -347 -52 -56 -105 -70 -273 -75 l-153 -4 0 96
0 96 128 0 c140 0 172 10 172 55 0 32 -22 51 -83 72 -160 55 -209 107 -215
229 -7 130 45 210 158 245 14 4 249 8 523 8 l497 1 0 -95z m1355 67 c28 -13
67 -37 88 -54 l39 -30 26 24 c74 67 147 88 304 88 l118 0 -2 -397 -3 -398 -95
0 -95 0 -3 303 -2 302 -28 -6 c-45 -10 -98 -50 -115 -87 -14 -30 -17 -72 -17
-276 l0 -241 -90 0 -90 0 0 241 c0 230 -1 243 -22 281 -25 44 -69 75 -113 80
l-30 3 -3 -302 -2 -303 -95 0 -95 0 0 401 0 401 138 -4 c116 -3 145 -7 187
-26z m905 -372 l0 -400 -95 0 -95 0 0 400 0 400 95 0 95 0 0 -400z m694 328
c-20 -40 -90 -175 -155 -300 -66 -126 -119 -230 -119 -233 0 -3 72 -5 160 -5
l160 0 0 -90 c0 -64 -4 -92 -13 -95 -7 -3 -150 -4 -319 -3 l-307 3 159 300
159 300 -124 3 -125 3 0 94 0 95 280 0 280 0 -36 -72z m646 -23 l0 -95 -155 0
-155 0 0 -60 0 -60 105 0 105 0 0 -90 0 -90 -105 0 -105 0 0 -60 0 -60 155 0
155 0 0 -95 0 -95 -250 0 -250 0 0 400 0 400 250 0 250 0 0 -95z"/>
</g>
</svg>
